HIERARCHY
ROOT Hips
{
	OFFSET -3.958830 18.904000 13.208200
	CHANNELS 6 Xposition Yposition Zposition Zrotation Yrotation Xrotation 
	JOINT LHipJoint
	{
		OFFSET 0.000000 0.000000 0.000000
		CHANNELS 3 Zrotation Yrotation Xrotation
		JOINT LeftUpLeg
		{
			OFFSET 1.800000 -1.400000 0.085000
			CHANNELS 3 Zrotation Yrotation Xrotation
			JOINT LeftLeg
			{
				OFFSET 2.215000 -6.000000 0.000000
				CHANNELS 3 Zrotation Yrotation Xrotation
				JOINT LeftFoot
				{
					OFFSET 2.500000 -6.900000 0.000000
					CHANNELS 3 Zrotation Yrotation Xrotation
					JOINT LeftToeBase
					{
						OFFSET 0.200000 -0.500000 1.950000
						CHANNELS 3 Zrotation Yrotation Xrotation
						End Site
						{
							OFFSET 0.000000 0.000000 0.000000
						}
					}
				}
			}
		}
	}
	JOINT RHipJoint
	{
		OFFSET 0.000000 0.000000 0.000000
		CHANNELS 3 Zrotation Yrotation Xrotation
		JOINT RightUpLeg
		{
			OFFSET -1.800000 -1.400000 0.085000
			CHANNELS 3 Zrotation Yrotation Xrotation
			JOINT RightLeg
			{
				OFFSET -2.215000 -6.000000 0.000000
				CHANNELS 3 Zrotation Yrotation Xrotation
				JOINT RightFoot
				{
					OFFSET -2.500000 -6.900000 0.000000
					CHANNELS 3 Zrotation Yrotation Xrotation
					JOINT RightToeBase
					{
						OFFSET -0.200000 -0.500000 1.950000
						CHANNELS 3 Zrotation Yrotation Xrotation
						End Site
						{
							OFFSET 0.000000 0.000000 0.000000
						}
					}
				}
			}
		}
	}
	JOINT LowerBack
	{
		OFFSET 0.000000 0.000000 0.000000
		CHANNELS 3 Zrotation Yrotation Xrotation
		JOINT Spine
		{
			OFFSET -0.087000 1.940000 -0.288900
			CHANNELS 3 Zrotation Yrotation Xrotation
			JOINT Spine1
			{
				OFFSET 0.000000 1.950000 0.060000
				CHANNELS 3 Zrotation Yrotation Xrotation
				JOINT Neck
				{
					OFFSET 0.000000 0.000000 0.000000
					CHANNELS 3 Zrotation Yrotation Xrotation
					JOINT Neck1
					{
						OFFSET 0.000000 1.600000 0.340000
						CHANNELS 3 Zrotation Yrotation Xrotation
						JOINT Head
						{
							OFFSET 0.000000 1.667000 -0.240000
							CHANNELS 3 Zrotation Yrotation Xrotation
							End Site
							{
								OFFSET 0.000000 0.000000 0.000000
							}
						}
					}
				}
				JOINT LeftShoulder
				{
					OFFSET 0.000000 0.000000 0.000000
					CHANNELS 3 Zrotation Yrotation Xrotation
					JOINT LeftArm
					{
						OFFSET 2.700000 1.550000 -0.730000
						CHANNELS 3 Zrotation Yrotation Xrotation
						JOINT LeftForeArm
						{
							OFFSET 5.450000 0.000000 0.000000
							CHANNELS 3 Zrotation Yrotation Xrotation
							JOINT LeftHand
							{
								OFFSET 3.450000 0.000000 0.000000
								CHANNELS 3 Zrotation Yrotation Xrotation
								JOINT LeftHandIndex1
								{
									OFFSET 0.750000 0.000000 0.000000
									CHANNELS 3 Zrotation Yrotation Xrotation
									End Site
									{
										OFFSET 0.000000 0.000000 0.000000
									}
								}
							}
						}
					}
				}
				JOINT RightShoulder
				{
					OFFSET 0.000000 0.000000 0.000000
					CHANNELS 3 Zrotation Yrotation Xrotation
					JOINT RightArm
					{
						OFFSET -2.700000 1.550000 -0.730000
						CHANNELS 3 Zrotation Yrotation Xrotation
						JOINT RightForeArm
						{
							OFFSET -5.450000 0.000000 0.000000
							CHANNELS 3 Zrotation Yrotation Xrotation
							JOINT RightHand
							{
								OFFSET -3.450000 0.000000 0.000000
								CHANNELS 3 Zrotation Yrotation Xrotation
								JOINT RightHandIndex1
								{
									OFFSET -0.750000 0.000000 0.000000
									CHANNELS 3 Zrotation Yrotation Xrotation
									End Site
									{
										OFFSET 0.000000 0.000000 0.000000
									}
								}
							}
						}
					}
				}
			}
		}
	}
}
MOTION
Frames: 11
Frame Time: 0.016667
0.425110 17.643690 -0.865800 -1.390121 -26.856681 6.688779 -15.261038 13.507154 3.082294 3.400304 -1.872846 -13.313280 -10.818408 6.008534 9.813369 -0.176291 4.381465 3.403121 0.083900 -0.266940 0.026320 18.208735 -10.231893 2.696639 -7.444203 2.232758 -28.845588 2.174612 -3.605856 13.275417 0.168622 -2.378083 3.701398 -0.182970 0.759350 0.438960 -3.190249 -3.070252 -6.926907 5.920741 -4.773252 0.859591 -0.134454 -5.161925 8.464821 0.714539 -2.798569 -11.212751 -7.539837 6.335252 33.078317 -4.202300 6.974850 4.847160 -3.535871 -13.597741 4.538737 -17.221553 -18.110580 4.327173 -33.940321 -49.931898 16.583662 -3.917189 3.414402 0.226830 0.521950 -0.216130 0.345200 2.431573 14.074842 7.327759 21.050937 9.624385 0.471207 38.173572 43.612217 13.971826 2.064797 -1.784055 -0.192390 0.149010 0.031020 0.031280 
0.418960 17.648850 -0.865470 -1.423883 -26.830294 6.774058 -15.255081 13.517355 3.089825 3.461169 -1.896747 -13.385130 -10.821734 6.009124 9.834824 -0.175180 4.378277 3.397755 0.075240 -0.285070 0.017860 18.211996 -10.218955 2.713207 -7.397337 2.281653 -29.108865 2.250027 -3.661041 13.555652 0.168318 -2.374270 3.702652 -0.199960 0.753950 0.439540 -3.202811 -3.104235 -6.949935 6.148238 -4.881628 0.991613 -0.307678 -5.223273 8.246582 0.748776 -3.019773 -11.415662 -8.009797 6.576744 33.234019 -3.886950 6.883590 4.895240 -3.543600 -13.840139 4.693492 -17.502077 -17.930235 4.313302 -34.187554 -49.004954 16.320313 -3.906201 3.406330 0.242410 0.510290 -0.213620 0.339310 2.371055 14.469660 7.486685 21.539421 9.725969 0.399271 37.612360 42.660950 13.412930 2.072206 -1.755219 -0.191020 0.142850 0.040930 0.028730 
0.408330 17.656430 -0.863800 -1.491506 -26.779659 6.933553 -15.244555 13.535436 3.101974 3.555643 -1.932699 -13.490617 -10.803931 6.000887 9.850079 -0.166187 4.361509 3.392362 0.065930 -0.306210 0.014110 18.217573 -10.193845 2.746627 -7.335647 2.368055 -29.576426 2.454819 -3.763991 14.022210 0.160302 -2.362262 3.698956 -0.225820 0.735830 0.439310 -3.224858 -3.164869 -6.993498 6.550331 -5.069786 1.249033 -0.561622 -5.328642 7.884950 0.815594 -3.416979 -11.788177 -8.873185 6.953832 33.510863 -3.420610 6.740920 4.755280 -3.504196 -14.215709 4.982340 -18.200456 -17.600816 4.255470 -34.342199 -47.483028 15.734669 -3.879366 3.388877 0.268710 0.482510 -0.198720 0.328950 2.205596 15.130681 7.768365 22.446777 9.838552 0.231024 36.473309 41.072731 12.423833 2.092808 -1.704073 -0.184180 0.134010 0.050160 0.026160 
0.394270 17.665780 -0.862130 -1.565805 -26.764838 7.109192 -15.230851 13.555462 3.115770 3.712642 -1.972793 -13.621379 -10.845871 6.024143 9.942506 -0.159068 4.350539 3.379392 0.052080 -0.323630 -0.000420 18.226082 -10.160972 2.790251 -7.228362 2.490034 -30.230212 2.619695 -3.877698 14.698673 0.155281 -2.356153 3.691051 -0.247070 0.714590 0.430300 -3.256400 -3.237247 -7.045481 7.058352 -5.300254 1.604184 -0.931081 -5.439881 7.453837 0.897635 -3.914426 -12.221313 -9.941184 7.390787 33.664170 -2.831530 6.506430 4.547490 -3.468223 -14.636464 5.314831 -19.162267 -17.213853 4.163848 -34.148662 -45.496281 14.795960 -3.848633 3.364151 0.293710 0.451210 -0.186390 0.315250 2.020040 15.915611 8.085680 23.666394 10.015622 0.037716 34.823133 39.103884 11.157682 2.115834 -1.642984 -0.180190 0.126490 0.063080 0.024860 
0.376120 17.673990 -0.859390 -1.582309 -26.687261 7.290957 -15.220549 13.574232 3.123308 3.818672 -2.018859 -13.776272 -10.829567 6.046560 10.109957 -0.155172 4.343012 3.372026 0.039850 -0.339100 -0.016070 18.233948 -10.123430 2.836338 -7.141440 2.622220 -31.025242 2.720940 -4.003777 15.568014 0.153224 -2.373791 3.678118 -0.262930 0.704700 0.421070 -3.282797 -3.313112 -7.088089 7.477034 -5.528495 1.932061 -1.300751 -5.543951 7.074168 0.959520 -4.368085 -12.609597 -10.879163 7.753309 33.485834 -2.256490 6.227640 4.471270 -3.358466 -15.027379 5.603411 -20.508687 -17.066076 4.117667 -33.145654 -43.104105 13.386446 -3.827053 3.332318 0.309820 0.430150 -0.183200 0.307050 1.808831 16.632999 8.379545 25.265165 10.214802 -0.175568 32.514306 36.987152 9.681731 2.134154 -1.585777 -0.179930 0.122690 0.073360 0.025790 
0.355000 17.682200 -0.856250 -1.548460 -26.562627 7.454315 -15.213991 13.592926 3.124948 3.842942 -2.051392 -13.891754 -10.720521 6.038812 10.228640 -0.146026 4.320619 3.371849 0.028340 -0.348610 -0.029480 18.240519 -10.080222 2.886111 -7.107104 2.751855 -31.918847 2.821871 -4.152205 16.577578 0.148529 -2.412020 3.652810 -0.276580 0.697700 0.414130 -3.302444 -3.395167 -7.125365 7.815298 -5.779865 2.250859 -1.640438 -5.672671 6.779720 1.014897 -4.781710 -12.976694 -11.708358 8.084521 33.115384 -1.758420 6.004590 4.381280 -3.148331 -15.381947 5.906365 -22.276951 -17.006577 4.057058 -31.294745 -40.609711 11.657957 -3.812176 3.299369 0.313880 0.413040 -0.180850 0.298370 1.518578 17.281447 8.630212 27.104480 10.463843 -0.391731 29.706528 34.889304 8.164138 2.155941 -1.532059 -0.174120 0.118430 0.082320 0.031420 
0.331080 17.690010 -0.852430 -1.538312 -26.378249 7.597181 -15.208150 13.605626 3.127478 3.954804 -2.071843 -13.925623 -10.685217 6.025613 10.188952 -0.137713 4.303496 3.373597 0.019660 -0.353420 -0.039660 18.247057 -10.035471 2.934707 -7.101537 2.872126 -32.762092 2.979104 -4.327694 17.636597 0.143836 -2.471192 3.625791 -0.283080 0.690850 0.400550 -3.321743 -3.472079 -7.164982 8.140918 -6.048262 2.578258 -1.979889 -5.812561 6.549850 1.074821 -5.108146 -13.336868 -12.374569 8.297295 32.756867 -1.311010 5.748530 4.327700 -2.962352 -15.779147 6.224145 -24.357777 -17.037610 3.993776 -28.489407 -38.057739 9.698792 -3.798321 3.252381 0.315600 0.398240 -0.180600 0.293060 1.239465 17.898231 8.871798 29.098392 10.674488 -0.623433 26.373339 32.860366 6.653893 2.175625 -1.478430 -0.173720 0.119780 0.085140 0.035490 
0.305720 17.694580 -0.846270 -1.587665 -26.226928 7.705495 -15.199469 13.611029 3.120454 4.142040 -2.063830 -13.840721 -10.628102 5.998936 10.057411 -0.134029 4.304499 3.375949 0.007800 -0.361940 -0.055050 18.257821 -9.995851 2.980292 -7.140499 2.989727 -33.491189 3.247126 -4.550361 18.723020 0.137905 -2.570427 3.581475 -0.285980 0.700230 0.396420 -3.354994 -3.526452 -7.191313 8.601948 -6.303771 2.897558 -2.450014 -5.921846 6.468784 1.130072 -5.356411 -13.622294 -12.804596 8.448725 32.124446 -0.992880 5.533240 4.390450 -2.849335 -16.158418 6.526432 -26.572038 -17.098951 3.907115 -24.795265 -35.601157 7.649781 -3.804730 3.205655 0.308380 0.398600 -0.188850 0.290060 1.023287 18.411960 9.047255 31.243951 10.882771 -0.870741 22.507298 31.044790 5.198534 2.186631 -1.436892 -0.176050 0.122520 0.093560 0.042380 
0.275760 17.695610 -0.838840 -1.638912 -25.968139 7.756509 -15.194996 13.609253 3.107373 4.388049 -2.035529 -13.644418 -10.591070 5.968514 9.829334 -0.141399 4.318688 3.377631 0.002400 -0.361970 -0.065580 18.267046 -9.963559 3.012252 -7.162811 3.083117 -34.083724 3.450542 -4.769481 19.824778 0.134481 -2.693328 3.534329 -0.275370 0.714020 0.388520 -3.380545 -3.561880 -7.200985 8.963709 -6.545016 3.150309 -2.892196 -6.033648 6.592290 1.151189 -5.458429 -13.764859 -12.862230 8.405486 31.292825 -0.963120 5.387950 4.400810 -2.784035 -16.457023 6.750521 -28.793188 -17.278952 3.847743 -20.514692 -33.376862 5.715269 -3.823509 3.158165 0.293550 0.409590 -0.206280 0.289720 0.900819 18.715013 9.119740 33.489606 11.065095 -1.121570 18.248110 29.508500 3.835971 2.184261 -1.411547 -0.185100 0.130960 0.099340 0.044460 
0.242950 17.692310 -0.830450 -1.718792 -25.750544 7.817634 -15.192533 13.599100 3.084611 4.679657 -2.020067 -13.496959 -10.537573 5.964750 9.757085 -0.151326 4.356960 3.372502 -0.006930 -0.371460 -0.078490 18.276017 -9.933457 3.045210 -7.206494 3.192792 -34.627536 3.728544 -5.024785 20.934690 0.132113 -2.847883 3.474265 -0.266390 0.738520 0.393950 -3.404127 -3.575020 -7.198135 9.300478 -6.714254 3.317634 -3.260057 -6.095960 6.855381 1.157338 -5.484742 -13.840493 -12.700271 8.233184 30.279265 -1.157690 5.264640 4.599030 -2.715893 -16.665982 6.964575 -31.075350 -17.378554 3.731148 -15.909364 -31.669377 3.982708 -3.857633 3.124667 0.271810 0.434370 -0.229900 0.289780 0.800636 18.872923 9.142129 35.718245 11.092599 -1.475434 13.798039 28.414183 2.615799 2.171914 -1.407955 -0.193950 0.133200 0.110140 0.047110 
0.207550 17.686280 -0.820600 -1.802929 -25.567602 7.824828 -15.190930 13.590754 3.054594 4.989786 -1.983327 -13.274446 -10.434755 5.968532 9.726314 -0.164119 4.407212 3.367102 -0.022120 -0.386970 -0.096720 18.283984 -9.909836 3.075324 -7.249287 3.300794 -35.069446 4.030912 -5.301314 22.040568 0.129756 -3.020036 3.411501 -0.259300 0.773440 0.400650 -3.424019 -3.577896 -7.189071 9.603538 -6.817199 3.462581 -3.600463 -6.100890 7.221262 1.158918 -5.449412 -13.896211 -12.413945 8.008056 29.288325 -1.412030 5.135060 4.851200 -2.661421 -16.839338 7.169657 -33.420514 -17.453705 3.575452 -10.849248 -30.261956 2.339658 -3.900803 3.092346 0.247490 0.466650 -0.258610 0.290530 0.723497 18.947750 9.163500 38.055700 10.847657 -2.069181 9.067751 27.958829 1.470134 2.145329 -1.418306 -0.206440 0.141670 0.127120 0.050830 
